solid OpenSCAD_Model
  facet normal -0 0 1
    outer loop
      vertex 0 1 40.5
      vertex 69 0 40.5
      vertex 69 1 40.5
    endloop
  endfacet
  facet normal 0 0 1
    outer loop
      vertex 69 0 40.5
      vertex 0 1 40.5
      vertex 0 0 40.5
    endloop
  endfacet
  facet normal 0 0 -1
    outer loop
      vertex 0 0 0
      vertex 69 1 0
      vertex 69 0 0
    endloop
  endfacet
  facet normal -0 0 -1
    outer loop
      vertex 69 1 0
      vertex 0 0 0
      vertex 0 1 0
    endloop
  endfacet
  facet normal 0 -1 0
    outer loop
      vertex 0 0 0
      vertex 69 0 40.5
      vertex 0 0 40.5
    endloop
  endfacet
  facet normal 0 -1 -0
    outer loop
      vertex 69 0 40.5
      vertex 0 0 0
      vertex 69 0 0
    endloop
  endfacet
  facet normal 1 -0 0
    outer loop
      vertex 69 0 40.5
      vertex 69 1 0
      vertex 69 1 40.5
    endloop
  endfacet
  facet normal 1 0 0
    outer loop
      vertex 69 1 0
      vertex 69 0 40.5
      vertex 69 0 0
    endloop
  endfacet
  facet normal 0 1 -0
    outer loop
      vertex 69 1 0
      vertex 0 1 40.5
      vertex 69 1 40.5
    endloop
  endfacet
  facet normal 0 1 0
    outer loop
      vertex 0 1 40.5
      vertex 69 1 0
      vertex 0 1 0
    endloop
  endfacet
  facet normal -1 0 0
    outer loop
      vertex 0 0 0
      vertex 0 1 40.5
      vertex 0 1 0
    endloop
  endfacet
  facet normal -1 -0 0
    outer loop
      vertex 0 1 40.5
      vertex 0 0 0
      vertex 0 0 40.5
    endloop
  endfacet
endsolid OpenSCAD_Model
